<svg xmlns="http://www.w3.org/2000/svg" viewBox="0 0 64 64" role="img" aria-label="THE IDOLM@STER">
  <defs>
    <linearGradient id="badge" x1="5" y1="5" x2="59" y2="59" gradientUnits="userSpaceOnUse">
      <stop offset="0" stop-color="#ff9ccc"/>
      <stop offset="1" stop-color="#ff74b8"/>
    </linearGradient>
  </defs>
  <rect x="3" y="3" width="58" height="58" rx="14" fill="url(#badge)"/>
  <rect x="4" y="4" width="56" height="56" rx="13" fill="none" stroke="#ffffff" stroke-opacity="0.42" stroke-width="2"/>
  <g transform="translate(3.8 10.3) scale(1.5667)">
    <path d="M31.5 14.5c1.4.3 3 .1 3.6-.3q.45-.3.3-.6c-.1-.3-.8-.5-2.5-.6-3.9-.2-5.9-2.3-6.7-3.2l-.3-.3-.2-.2c-.8-.8-1.1-1.2-2-1.2-1.1.1-1.8 1.8-2.3 3.2 0 0-.1.2-.1.3-.1-.2-1.6-2.6-1.6-2.6v-.2c0-.2.1-.5.7-.6 1.5-.4 2.5-1.1 2.6-1.8v-.2c0-.8-1-1.5-2.5-1.9-1-.2-1.7-.3-2.3-.2.3 0 .7-.1.9-.1.6.1.8 0 .9 0s.1-.1 0-.2c0-.1-.2-.1-.3-.2-.4-.1-.9 0-1.2.1s-.5.3-.6.5h-.1c-.1-.3-.3-.5-.5-.5-.2-.1-.8-.1-1.2-.1-.2 0-.3.1-.3.2v.1s0 .1.1.1h.8q.45 0 .9.3c-.7-.2-1.9.1-2.6.3-1 .4-1.7 1-2 1.5-.1.2-.2.4-.6.4-.3-.1-.6-.2-.9-.1q-.45.15-.3.6c.1.2.1.3.4.4.3.2.9.2 1.4.2v.1c.1.1.2.2.5.4s.8.2 1.2.1l.2.1c.4.2 1 .2 1.5.1.1.1.1.2.1.3v.2s-1.6 2.3-2 3c-.1-.2-.2-.4-.2-.7l-.2-.5c-.5-1.5-.9-2.8-2.1-2.8-.9 0-1.3.4-2.2 1.3l-.1.6c-.9.9-2.9 3-6.8 3.2-1.6.1-2.3.2-2.5.6q-.15.3.3.6c.7.4 2.2.6 3.6.3h.3c0 .1-.4.3-1.2.4s-1.2.3-1.4.6q-.15.3.3.6c.2.1.7.2 1.2.3.5 0 1.6 0 2.7-.7.1 0 .1-.1.3-.2.1 0 .2-.1.2 0 .1 0 0 .2-.6.6-.7.5-.9.8-.7 1.1.2.2.9.4 2.2 0 2.8-1 3.5-2.5 4.1-3.6.3-.6.6-1.1 1.1-1.2s.8.5 1 .9c-1.6 2.4-2.3 3.2-2.8 3.7-.2.3-.4.5-.6.8 0 0-.4.5-1 .7 0 0-.1 0-.1.1h.4c.4 0 .9 0 1.3.1 1.7.3 2.5.8 2.6.8s.1.1.1.1-.1.1-.2.1h-.2c-.2 0-.5 0-.7-.1l-.9-.2-.4-.1h-.1c-1.5-.2-2.4.1-2.6.4 0 0-.1.1-.1.2s0 .2.1.3c.2.3.9.5 1.9.7h1.7c.2 0 .5 0 .7.1l.6.3c.1 0 .3.2.2.3 0 .1-.3.2-.6.3-.1 0-1.6.2-3.2-.1-.4-.1-.9-.1-1.3-.2H8l-.3-.1c-1.2-.4-2-1-1.9-1.5v-.1l-.1-.1h-.1c-.5.3-.8.7-.9 1.1 0 .1-.1.2-.1.4 0 1.4 2.1 2.7 5 3 1.8.2 3.6 0 4.9-.6.9-.4 1.5-.9 1.6-1.5v-.3c0-.5-.3-1.1-1.1-1.7l-.3-.2c-.3-.2-.5-.4-.4-.7 0-.1 0-.3.1-.5 0 0 .9-2.2 1.2-2.8.6.6 1.6.9 2.3.9.2 0 .6-.1.8-.1 0 0 .1 0 .1-.1v-.1h-.3c-.3 0-.6 0-.7-.1-.1 0-.1-.1 0-.2s.3-.1.7-.1c.3 0 .5 0 .6-.1h.1-.7c-.3 0-.5 0-.6-.2v-.2c.1-.1.3-.1.5-.1h.1c.4 0 .5 0 .6-.1v-.1h-.4c-.2 0-.5 0-.7-.1l-.1-.1s0-.1.2-.2h.2c.2 0 .3 0 .3-.1v-.1s-.1-.1-.4-.1H18c-.6 0-1.1-.2-1.6-.4 1.1-2.6 1.1-3 1.1-3q.15-.3.6-.3c.3 0 .4.1.6.3 0 .1.1.4 1 3-.3.2-.7.3-1 .4 0 0-.1 0-.1.1v.2h-.5l-.1.1v.1c.1.1.3.1.5.1h.2c.2 0 .3 0 .4.1v.1c0 .1 0 .1-.1.1-.1.1-.5.2-.7.2h-.4s-.1 0-.1.1v.1s.1 0 .4.1h.8c.1 0 .2.1.2.2s0 .1-.1.1c-.2.1-.4.1-.7.1H18s-.1 0-.1.1v.1h.8c.1 0 .1.1.2.1h.2c.5-.2 1.1-.4 1.4-.7.1.3 1.1 2.8 1.1 2.8.1.2.1.4.1.5 0 .2-.1.4-.3.5h.2c.6-.2 1.3-.4 2.1-.5 1.7-.3 3.2 0 3.3 0s.2 0 .2.1l-.1.1-.4.1s-.4.1-.8.1h-1.7c-.9.1-1.5.4-1.8.6-.1.1-.2.3-.1.5.2.5 1.4.7 2.8.5.6-.1 1.4-.3 1.7-.6v-.1h-.1l-1.8.2c-.2 0-.4 0-.5-.1l-.1-.3v-.1c.1 0 .2-.1.3-.1 0 0 2-.2 3.6-.3.6 0 .9 0 1.2.2.2.2.1.5 0 .6 0 .1-.6 1.3-4.1 1.7-3.1.3-4.7-.3-5.1-.9h-.1s-.1 0-.1.1v.6c.2.6.7 1.1 1.6 1.5 1.3.6 3.1.8 4.9.6 2.9-.3 5.1-1.6 5.1-3V21c-.3-1-1.7-1.8-4-2.1-.6-.1-1.2-.4-1.7-.9-.2-.3-.4-.5-.6-.8-.5-.6-1.2-1.4-2.9-4.1.1-.2.4-.6.8-.6.5 0 .8.5 1 1.2.5 1.1 1.2 2.7 4 3.6 1.3.4 2 .2 2.2 0 .2-.3 0-.7-.7-1.1-.6-.4-.6-.6-.6-.6h.2l.3.2c1.1.6 2.2.7 2.7.7s1-.1 1.2-.3q.45-.3.3-.6c-.1-.3-.6-.5-1.3-.6-.9-.1-1.2-.4-1.2-.4 0-.2.1-.2.2-.1M18 6.7c0 .1.1.1.1.1H18l-.1-.1h-.1c-.1 0-.2.1-.4.1-.1 0-.1 0-.1.1h-.2v-.1s0-.1-.1-.1l-.3-.1h-.1c-.1 0-.1.1-.2.1h-.1.1v-.2l-.1-.1v-.2h.1s.3.2.8.2c.3 0 .7-.1 1-.2h.1v.1l-.2.1c-.1.2-.1.2-.1.3m4.4 0q-.15.15 0 0h-.3l-.3.1s-.1 0-.1.1V7h-.1s0-.1-.1-.1-.2 0-.3-.1h-.1s0 .1-.1.1h-.1v-.1h.1v-.1l-.2-.1v-.1h.1c.3.2.6.2 1 .2.5 0 .7-.2.8-.2h.1v.1l-.1.1v.1c0 .1-.4-.1-.3-.1m-2.5.8c.1 0 .1-.1.2-.1 0 0 .1 0 .1-.1v-.1h.1c0 .2-.1.3-.4.3-.3.2-.9.2-1.3-.2v-.1h.1c.4.4.9.4 1.2.3m-1.1 9.2s0 .1 0 0l-.2.1c.1 0 .2 0 .2-.1" fill="#ffffff"/><path d="M6.8 11.1c-.5-.6-1-1.2-1.6-1.6-.6-.5-1.2-.7-1.8-.8-.4-.1-1-.1-1.3 0s-.6.2-.7.4c-.2.4 0 .6.5.9-.6.1-1.4.4-1.6.7-.1.3-.1.6.2.8.2.3.5.4.9.5.6.1 1.4 0 2.4-.2H4c.3-.1 2.4-.7 2.8-.7m22.4 0c.4-.6 1-1.2 1.6-1.6.6-.5 1.2-.7 1.8-.8.4-.1 1-.1 1.3.1.3.1.5.2.7.4.2.4 0 .6-.5.9.6.1 1.4.4 1.6.7.1.3.1.6-.2.8-.2.2-.5.3-.9.4-.6.1-1.4.1-2.4-.2H32c-.3-.1-2.4-.7-2.8-.7" fill="#ffffff"/>
  </g>
</svg>
