<svg xmlns="http://www.w3.org/2000/svg" xml:space="preserve" id="레이어_1" x="0px" y="0px" version="1.1" viewBox="0 0 36 28"><style>.st0{fill:#fff}</style><path d="M17.1 10.4c-.8-4.4-2.8-6.2-2.8-5.6s-.8.8-1.2.5c-.5-.3-.7-1-.3-1.5 0 0 0-.1.1-.1.8-1 4-.9 4.6 6.7-.2.1-.4.2-.4 0m1.2 0c.8-4.4 2.8-6.2 2.8-5.6s.8.8 1.2.5c.7-.4.7-1.2.4-1.6-.8-1-4-.9-4.5 6.7-.1.1.1.2.1 0m-8 13.3.6.9 1-.1-.6.8.4 1-1-.4-.8.7.1-1-1-.6 1-.2c0-.1.3-1.1.3-1.1m-4.1-.1.2 1.5 1.4.5-1.3.7-.1 1.5-1-1.1-1.4.4.7-1.3-.8-1.3 1.5.3zM28.6 3.8l-1-.4-.2-1.6-1 1.2-1.6-.4.9 1.4-.4.6L28 4c.2-.1.4-.1.6-.2m.8-3.3.3.9-.6.7.9-.1.5.8.2-.9.9-.2-.8-.5V.3l-.7.6c.1 0-.8-.4-.7-.4" class="st0"/><path d="M28.3 13.2c2.1-1.2 2-3.9 2-3.9 1.8-2 2.1-4.1 1.5-5.5-.5-1.2-1.5-.4-3.2.1l.5.1-1.5.7-.2 1.6-1-1.2-1.6.3.5-.8c-2.6.7-5.1 2.3-7.6 8.7C14.4 4.8 11.1 4.9 7.4 4c-2.1-.5-3.2-1.6-3.8-.3-.5 1.4-.2 3.6 1.5 5.5 0 0-.1 2.8 2 3.9.1 1.7 1.7 2.5 3.3 2.7-.7.3-1.2.9-1.5 1.6-.3 1-.1 2.3-.2 3.4-.4-.1-.7-.2-1.1-.2-1.7 0-2.1 1.8-.5 2.4.8.3 2 .3 2.9-.3.5.2 1.1.5 1.9.5 2.4.2 4.1-1 4.5-3 .2-.9.1-2.1-.7-2.9-.7-.7-2.1-1-2.8.1-.6.9-.2 1.9.4 2.1.9.3 1-.4 1.1-.1.4 2-1.5 2.8-3.3 2.3 1.2-2.2-.8-4.9 2.4-6 0 0-3.4-1.1-3.8-5.2-.2-2.5 2.8-2.3 5.3.6-2.9-1.8-4.5 1.1-3 2.6.4.4 1.5.9 2.3 0 .6-.7-.1-1.7-.4-1.7-.1.3-.4.4-.5.1-.2-.6 1.1-.9 2.6.3.4.6.8 1.3 1.1 2.1-.1.4-.2 1-.2 1.5 0 1.2.4 1.8.6 1.8s.6-.7.6-1.8c0-.5-.1-1.1-.2-1.5.3-.8.7-1.5 1.1-2.1 1.4-1.2 2.8-.9 2.6-.3-.1.3-.4.2-.5-.1-.4 0-1 1-.4 1.7.8.9 2 .4 2.3 0 1.5-1.6-.1-4.4-3-2.6 2.6-2.9 5.5-3.1 5.2-.5-.5 4.2-3.8 5.2-3.8 5.2 3.3 1.1 1.2 3.8 2.4 6-1.8.5-3.7-.3-3.3-2.3.5-.2.5.5 1.5.2.6-.2 1-1.2.4-2.1-.7-1.1-2.1-.8-2.8-.1-.8.8-.9 2-.7 2.9.3 1.9 2.1 3.2 4.5 3 .7-.1 1.3-.3 1.9-.5.9.5 2.1.6 2.9.3 1.6-.7 1.2-2.4-.5-2.4-.3 0-.7.1-1 .2-.1-1 .1-2.4-.2-3.4-.2-.5-.6-1.2-1.5-1.6 1.5-.4 3.1-1.1 3.3-2.8M7.6 22.4c-.8 0-.8-.7-.2-.9.3-.1.7.1 1.2.3-.2.4-.5.6-1 .6m1-9.7-.7-.3-.6.5.1-.8-.7-.4.8-.2.2-.8.4.7.8-.1-.6.7zm.8-3.4-1.1-.4-.8.7.1-1.1-1-.6 1.1-.3.3-1.1.6 1 1.1-.1-.7.8zM28 21.5c.6.2.6.9-.2.9-.5 0-.8-.2-1-.5.5-.3.9-.4 1.2-.4M26.6 8.7l1-.2.2-1 .6.9 1-.1-.6.7.4.9-1-.4-.8.6.1-1z" class="st0"/></svg>