<svg xmlns="http://www.w3.org/2000/svg" xml:space="preserve" x="0px" y="0px" viewBox="0 0 36 28"><path d="M26 9.7c1.1-1 2-2.2 2.7-3.4.2-.3.4-.7.7-.9.6-.4 1.4.1 1.8.6.9.9 1.2 2.4 1 3.7-.3 1.3-1.2 2.4-2.4 3.3-.2.1-.3.2-.5.3 0 0 1-.5 1.6-.9s1-.6 1.6-.2c.8.5.6 2.3-.3 3.7s-2.4 2.6-3.1 2.8c0 0 .5-.1.9-.3.5-.3.7-.6 1-.3s-.1.8-.3 1.1-2.4 2.5-5.7 4.1c0 0-.1 0 0 0 1.9-1.5 3.1-3.8 3.3-4.1 1.1-2.4.9-4.5.2-5.6-.8-1.2-2.4-1.8-3.8-1.5-1.1.3-2.4 1.4-2.3 1.3.1-.4.4-.7.6-.9.6-.7 1.3-1.2 2.1-1.8.2-.5.5-.7.9-1M14.6 20.5l11.1-7c-.1 2.1-.2 2.2-1.5 2.4 1.3.2 1.4.3 1.5 2.4.1-2 .2-2.2 1.5-2.4-1.3-.2-1.4-.3-1.5-2.4zM12.2 2.8c-.1 2.6-.3 2.8-1.9 3.1 1.6.2 1.7.4 1.9 3.1.1-2.6.3-2.8 1.9-3.1-1.6-.3-1.7-.5-1.9-3.1m12.3 18c-.3 2.7-2.2 4.3-4 5.5-1.3.8-1.5 1.4-1.5 1.4s-1.9-2-4.5-3.1c-3.1-1.4-6.2-2.9-7.6-4.2S5 18.3 5.2 17.9c0-.1.2-.3.6 0s1.2.7 1.5.7c-1.9-.9-3.7-2.4-4.1-4.6-.1-.7-.1-1.5.6-2 .6-.4 1.1.1 1.3.2.1.1.9.7 1.9 1.1-.5-.2-2-1.5-2.2-1.7-.9-1-1.3-2.4-1.1-3.7.3-.9.9-2.3 1.9-2.6.8-.3 1.5.3 2 .9.8.9 1.5 1.7 2.4 2.4s1.8 1.3 2.8 1.8c1.8 1 4.5 2.5 5.9 4.7 1.3 2 2.6 5.6.1 9.3 0 0-.5-.8-2.5-2-1.7-1-4-1.6-5.3-2.6-1.6-1.3-1.9-3.8-.4-5.3.9-.9 2.1-1 3.3-.7 1.6.4 2.8 1.9 2.5 3.6 0 0 0-.5-.5-.8-.9-.6-1.7.4-1.9 1-.2 1.2.5 2.2.9 2.5 1 .8 2.2 1.5 2.8 1.7 0 0 1.5-1.3.9-3.9s-2.7-4.3-4.1-5.1-3.5-1.6-5.1-.5c-1.6 1-2.1 2.8-1.6 4.9v.1c.4 1.5 1.5 2.7 2.7 3.6 1.4 1 3.1 1.6 4.6 2.4 1.3.6 2.8 1.4 3.7 2.6 0 0 1.1-1.2 1.2-1.3.3-.4.6-.9.8-1.4.4-.9.6-1.9.6-2.9 0-.6 0-1.2-.1-1.8-.3-1.9-1.2-3.7-2.5-5.1-.7-.7-1.4-1.3-2.1-2.1-.8-1-1.4-2.1-1.5-3.4-.2-2 1-4.1 2.8-4.4 2.1-.4 5.1 1.4 3.8 3.7-.3.5.9 1.7.9 1.7-.4 1-1.6-.2-2.1-1.4-.3-.8-1.2-1.5-2.1-1.3-1 .2-1.7 1.4-1.6 2.4.1 1.2 1 2 1.9 2.7 1.1.9 2.1 1.8 3.1 2.8 1.6 1.8 2.8 4.2 2.6 6.7M20.3 5.7c-.1.2-.1.3-.1.5s.1.3.2.5.1.2.2.3c0 .1.1.1.1.1v.1c0 .1 0 .1.1.2v-.3c0-.1 0-.1.1-.2zM7.4 11.5c.1-1.5.2-1.6 1.1-1.8-.9-.1-1-.3-1.1-1.8-.1 1.6-.2 1.7-1.1 1.8.9.2 1 .3 1.1 1.8m13.7-9.9q0-.3-.3-.3c-.3 0-.3.1-.3.3 0 .1 0 .1.1.2l-.4.5c-.1.1-.2 0-.2-.1v-.8q.3 0 .3-.3T20 .8c-.3 0-.5.1-.5.2s0 .2.1.2l-.4.8c0 .1-.2.1-.2 0L18.7.9c.1-.1.1-.1.1-.3q0-.3-.3-.3c-.3 0-.3.1-.3.3 0 .1.1.2.1.3L18.1 2c0 .1-.2.2-.2 0l-.4-.7c.1-.1.1-.1.1-.2q0-.3-.3-.3c-.3 0-.3.1-.3.2q0 .3.3.3v.8c0 .1-.1.2-.2.1l-.4-.5s.1-.1.1-.2q0-.3-.3-.3c-.3 0-.5.2-.5.4s.1.3.3.3l.5 1.5v.1q.45-.3.9-.3c.3-.2.6-.2.9-.2.5 0 1.1.1 1.6.3l.5-1.5c.2.1.3-.1.4-.2" style="fill:#fff"/></svg>