<svg xmlns="http://www.w3.org/2000/svg" xml:space="preserve" id="레이어_1" x="0px" y="0px" version="1.1" viewBox="0 0 36 28"><style>.st0{fill:#fff}</style><path d="M35.5 9.5c-1 1.9-5.1 3.7-6.7 3.9 7-4 7-6.6 6.2-8.7-2.2 4.4-9 6.3-10.6 7.4-.7.4-1.6 1.6-2.5 2.9l-.6-1.7 5.3-3.8H20l-2-6.1-2 6.1H9.4l5.3 3.8-.6 1.7c-.9-1.3-1.9-2.4-2.5-2.9C9.9 11 3.2 9.1 1 4.7.2 6.8.2 9.3 7.2 13.4c-1.6-.3-5.7-2-6.7-3.9-.9 2.1.7 5 6.4 7.3-.7 0-3.8-.5-4.8-1.2 0 1.3.4 2.9 6 4.6-.7.1-2.9-.2-3.6-.4-.1.8 1.4 2.7 9.4 3.8-2.2-1.8-5-7.8-3.6-8.1 1.5-.4 7.6 9.1 7.6 9.1s6.1-9.4 7.6-9.1-1.4 6.3-3.5 8.1c8-1 9.6-3 9.5-3.8-.7.2-3 .5-3.6.4 5.6-1.7 6-3.4 6-4.6-1.1.7-4.1 1.3-4.8 1.2 5.8-2.3 7.3-5.2 6.4-7.3M18 21.1s-1.2-2.1-2.6-4.2l.9-4.6s-1.2-.2-1.4-.2c-.1 0-.6.4-.6.4 0-.9.4-1.4.5-1.5.1 0 1.1-.1 1.1-.1l.6-.5c.2-.1.3-.1.8-.1h3.2l-1 .8 1.1 5.8C19.2 19 18 21.1 18 21.1" class="st0"/><path d="m27.1 6.7-.9 1.5c-.1.1 0 .2.1.1l1.7-.7 1.4 1.3c.2.1.3.1.3-.1l-.3-1.7 1.7-.7c.2-.1.1-.2 0-.2l-1.9-.3-.3-1.7c0-.2-.1-.2-.2 0l-.9 1.5-1.9-.3c-.2 0-.2 0-.1.2zM4.9 6.3l1.7.7-.3 1.8c0 .2.1.2.2.1l1.4-1.3 1.7.7c.2.1.2 0 .1-.1l-.8-1.5 1.4-1.3c.1-.1.1-.2-.1-.2l-2 .4-.8-1.5c-.1-.2-.2-.1-.2 0l-.3 1.7-1.9.4c-.2 0-.2.1-.1.1m11.8 4.8h.8l.5-.5c-.5 0-1 .2-1.3.5" class="st0"/></svg>